<svg id="Capa_1" data-name="Capa 1" xmlns="http://www.w3.org/2000/svg" viewBox="0 0 61 75.41"><defs><style>.cls-1{fill:#fff;}.cls-2{isolation:isolate;}</style></defs><title>clap</title><path class="cls-1" d="M54.35,18.75A3,3,0,0,0,51,16.23h0A5,5,0,0,0,46.75,22h0l.72,4.59L45,22.3l.64-1.1a4.08,4.08,0,0,0-1.2-5.5,4,4,0,0,0-2.17-.65h0l.27-.46a4,4,0,0,0-6-5,4,4,0,0,0-1.79-1.83,4.09,4.09,0,0,0-5.37,1.71l-1.18,2A3.94,3.94,0,0,0,26.51,10a4.07,4.07,0,0,0-5.36,1.7L9.4,32a7.42,7.42,0,0,0-.53,4.41,7.31,7.31,0,0,0,1,2.84L7.69,43a2,2,0,0,0,.73,2.74h0l13,7.5a2,2,0,0,0,2.73-.73l2.11-3.65a3.08,3.08,0,0,0,.61,0,10.58,10.58,0,0,0,2.62-.45l.16-.05.1,0,.24-.09,1,1.81a7.55,7.55,0,0,0,3.56,2.66,8,8,0,0,0,2.69.6l.24,0L39.65,57a2,2,0,0,0,2.73.73h0l13-7.5a2,2,0,0,0,.73-2.73L54,43.86a8.41,8.41,0,0,0,1.27-3l1.15-7a5.06,5.06,0,0,0,.09-2.05Zm-8.62,8.79s0,0,0,0a5,5,0,0,0-1.67,3,5.09,5.09,0,0,0-1.61.49h0a5.28,5.28,0,0,0-.84.55l-.72.58L38,34.5l2.35-4.06,3.54-6.13ZM21.91,52.33l.5-.86h0Zm.5-.86L9.42,44l2-3.47,6.5,3.75L24.42,48Zm6.54-5c-.7.19-2.16.58-2.67.29l-14.7-8.49c-.55-.46-1.3-3.79-.45-5.26L22.88,12.66a2.19,2.19,0,0,1,1.88-1.12,1.89,1.89,0,0,1,.84.2,2,2,0,0,1,.87,2.69.41.41,0,0,1,0,.09h0l-4,6.93a1,1,0,0,0,1.73,1h0l4-6.93h0l2.91-5a2.11,2.11,0,0,1,2.72-.93,2,2,0,0,1,.88,2.69l-.05.09h0l-7,12.13a1,1,0,0,0,1.73,1h0l7-12.13.92-1.59A2.11,2.11,0,0,1,40,10.81a2,2,0,0,1,.88,2.69.41.41,0,0,0,0,.09l-2,3.46h0l-6,10.4a1,1,0,0,0,.36,1.36,1,1,0,0,0,1.37-.36l6-10.4a2,2,0,0,1,2.73-.73l.09.06a2.11,2.11,0,0,1,.56,2.82L43,21.77s0,0,0,0l-4.08,7.07-2.67,4.64a2,2,0,0,0,3,2.55l3.62-2.91a3,3,0,0,1,4.22.46,1,1,0,0,1,.08,1.14h0a1.21,1.21,0,0,1-.21.24l0,0-6.49,5.34-3.68,3c-.07.06-.15.1-.22.15a3.18,3.18,0,0,1-1,.46h0l-.33.13-5.13,1.94,0,0-1,.37ZM41.38,56l-2-3.46,13-7.5,2,3.46Zm13.1-22.67a.29.29,0,0,0,0,.09l-1.09,6.76,0,.13c-.19.71-.58,2.19-1.1,2.49l-6.35,3.67-8.36,4.82c-.68.24-3.93-.77-4.78-2.24l-.88-1.53,4.31-1.64a4.37,4.37,0,0,0,.78-.31.85.85,0,0,0,.17-.06,6.06,6.06,0,0,0,.53-.35c.11-.08.24-.14.35-.23l3.48-2.86,6.69-5.5c.13-.12.26-.24.37-.36l0,0a2.69,2.69,0,0,0,.31-.44,3,3,0,0,0-.26-3.39,5,5,0,0,0-.4-.4c-.1-.1-.19-.21-.3-.3l-.4-.27c-.13-.1-.27-.19-.41-.28l-.46-.2c-.15-.06-.29-.13-.44-.18l-.13,0A3.35,3.35,0,0,1,48,28.47l.16,0a2,2,0,0,0,1.32-2.19l-.71-4.59a2.94,2.94,0,0,1,.54-2.24,3,3,0,0,1,1.95-1.2,1,1,0,0,1,1,.49,1.15,1.15,0,0,1,.12.37l2.16,13a3.07,3.07,0,0,1-.06,1.28Z"/><path class="cls-1" d="M32,5a1,1,0,0,0,1-1V1a1,1,0,0,0-2,0V4A1,1,0,0,0,32,5Z"/><path class="cls-1" d="M20.13,5.5a1,1,0,1,0,1.74-1h0l-1.5-2.6a1,1,0,1,0-1.73,1h0Z"/><path class="cls-1" d="M11.41,9.83a1,1,0,0,0,1.42-1.42L10.7,6.29a1,1,0,0,0-1.41,0,1,1,0,0,0,0,1.39Z"/><path class="cls-1" d="M7.1,15.13l-2.6-1.5a1,1,0,0,0-1,1.74l2.6,1.5a1,1,0,0,0,1-1.73Z"/><path class="cls-1" d="M42.5,5.87a1,1,0,0,0,1.36-.37l1.5-2.6a1,1,0,1,0-1.72-1h0l-1.5,2.6A1,1,0,0,0,42.5,5.87Z"/><path class="cls-1" d="M51.88,10.12a1,1,0,0,0,.7-.29L54.7,7.71a1,1,0,0,0-1.41-1.42L51.17,8.41a1,1,0,0,0,0,1.42A1,1,0,0,0,51.88,10.12Z"/><path class="cls-1" d="M60.86,14a1,1,0,0,0-1.36-.37l-2.6,1.5a1,1,0,0,0-.38,1.37,1,1,0,0,0,1.37.37h0l2.6-1.5A1,1,0,0,0,60.86,14Z"/><text class="cls-2"/><text class="cls-2"/></svg>