<svg id="Capa_1" data-name="Capa 1" xmlns="http://www.w3.org/2000/svg" viewBox="0 0 50.66 63.82"><defs><style>.cls-1{fill:#fff;}</style></defs><title>strength</title><path class="cls-1" d="M29.79,17.64V13A3.89,3.89,0,0,0,25.9,9.1H3.9A3.9,3.9,0,0,0,0,13V35.13a5,5,0,0,0,4.85,5V62.82a1,1,0,0,0,1,1H24a1,1,0,0,0,.92-1V40.19h.15a4.71,4.71,0,0,0,4.7-4.7V33.93a8.19,8.19,0,0,0,5.08-7.56V25.2A8.21,8.21,0,0,0,29.79,17.64Zm-2-4.65v4.12A8,8,0,0,0,26.7,17h-4V11.1h3.16A1.9,1.9,0,0,1,27.79,13ZM14.32,25.26H8.65V11.1h5.28V17H12.49a1,1,0,0,0-1,1v1.52A7.22,7.22,0,0,0,14.32,25.26Zm1.6-14.16h4.82V17H15.92Zm-12,0H6.65V25.26H2.05V13A1.91,1.91,0,0,1,3.94,11.1Zm19,50.74h-16V40.3h16Zm4.85-26.35a2.7,2.7,0,0,1-2.7,2.7h-20A3.06,3.06,0,0,1,2,35.13H2V27.26H20.12a1,1,0,0,0,.38-.07A3.21,3.21,0,0,1,22.19,30a4.49,4.49,0,0,0,4.5,4.5h0a6.71,6.71,0,0,0,1.1-.08Zm5.08-9.15a6.19,6.19,0,0,1-6.2,6.17,2.5,2.5,0,0,1-2.5-2.5,5.25,5.25,0,0,0-5.25-5.24h-.23a5.24,5.24,0,0,1-5.22-5.22V19H26.7a6.17,6.17,0,0,1,6.17,6.17h0ZM50.44,10.65,42.55.39a1,1,0,0,0-1.4-.18A.81.81,0,0,0,41,.39L33.07,10.65a1,1,0,0,0,.8,1.61h2.55v5a1,1,0,0,0,1,1h8.67a1,1,0,0,0,1-1v-5h2.56a1,1,0,0,0,.8-1.61Zm-4.35-.39a1,1,0,0,0-1,1v5H38.42v-5a1,1,0,0,0-1-1H35.9l5.85-7.62,5.9,7.62Zm0,10.09H37.42a1,1,0,0,0-1,1v3.29a1,1,0,0,0,1,1h8.67a1,1,0,0,0,1-1V21.35a1,1,0,0,0-1-1Zm-1,3.29H38.42V22.35h6.67Z"/></svg>