<svg id="Capa_1" data-name="Capa 1" xmlns="http://www.w3.org/2000/svg" viewBox="0 0 89.69 90"><defs><style>.cls-1{fill:#fff;}</style></defs><title>video</title><path class="cls-1" d="M87.7,0H2A2,2,0,0,0,0,2v60.8a2,2,0,0,0,2,2H42.85V76.49L32.74,86.6a2,2,0,0,0,2.82,2.82l9.29-9.29,9.28,9.29A2,2,0,0,0,57,86.6L46.84,76.49V64.78H87.7a2,2,0,0,0,2-2V2A2,2,0,0,0,87.7,0Zm-2,60.8H4V4H85.71Z"/><path class="cls-1" d="M37.83,15.74,59.61,29.89a3.09,3.09,0,0,1,0,5L37.83,49c-1.71,1.12-3.86-.28-3.86-2.5V18.25C34,16,36.12,14.63,37.83,15.74Z"/></svg>